<?xml version="1.0" standalone="no"?>
<!DOCTYPE svg PUBLIC "-//W3C//DTD SVG 20010904//EN"
 "http://www.w3.org/TR/2001/REC-SVG-20010904/DTD/svg10.dtd">
<svg version="1.0" xmlns="http://www.w3.org/2000/svg"
 width="240.000000pt" height="240.000000pt" viewBox="0 0 240.000000 240.000000"
 preserveAspectRatio="xMidYMid meet">

<g transform="translate(0.000000,240.000000) scale(0.100000,-0.100000)"
fill="#000000" stroke="none">
<path d="M0 1200 l0 -1200 1200 0 1200 0 0 1200 0 1200 -1200 0 -1200 0 0
-1200z m2370 5 l0 -1165 -1170 0 -1170 0 0 1165 0 1165 1170 0 1170 0 0 -1165z"/>
<path d="M1082 1909 c-137 -23 -270 -90 -377 -191 l-64 -60 -53 29 c-59 33
-86 33 -92 0 -3 -12 -8 -102 -11 -200 -7 -182 -3 -207 32 -207 7 0 90 41 184
91 158 85 170 94 167 118 -2 17 -17 35 -47 55 l-45 30 49 43 c315 277 802 130
919 -278 8 -30 24 -63 34 -72 25 -23 74 -21 103 2 31 25 30 72 -4 169 -114
326 -454 528 -795 471z"/>
<path d="M519 1131 c-31 -25 -30 -72 4 -169 37 -108 82 -177 172 -267 90 -90
159 -135 264 -171 260 -90 534 -32 736 158 l65 60 44 -26 c52 -30 82 -33 94
-8 13 23 21 376 10 396 -5 9 -17 16 -27 16 -25 0 -333 -165 -348 -187 -19 -26
-17 -30 39 -70 l51 -37 -48 -43 c-315 -277 -803 -129 -919 278 -8 30 -24 63
-34 72 -25 23 -74 21 -103 -2z"/>
</g>
</svg>
